<?xml version="1.0" encoding="iso-8859-1"?>
<!-- Generator: Adobe Illustrator 16.0.0, SVG Export Plug-In . SVG Version: 6.00 Build 0)  -->
<!DOCTYPE svg PUBLIC "-//W3C//DTD SVG 1.1//EN" "http://www.w3.org/Graphics/SVG/1.1/DTD/svg11.dtd">
<svg version="1.1" id="Capa_1" xmlns="http://www.w3.org/2000/svg" xmlns:xlink="http://www.w3.org/1999/xlink" x="0px" y="0px"
	 width="507.086px" height="507.086px" viewBox="0 0 507.086 507.086" style="enable-background:new 0 0 507.086 507.086;"
	 xml:space="preserve">
<g>
	<path d="M454.629,0H52.457C23.483,0,0,23.483,0,52.457v402.172c0,28.974,23.483,52.457,52.457,52.457h402.172
		c28.974,0,52.457-23.483,52.457-52.457V52.457C507.086,23.483,483.603,0,454.629,0z M437.143,384.686H279.771v-43.714h157.371
		V384.686z M34.972,472.114V52.457c0-9.643,7.842-17.485,17.485-17.485h419.657L34.972,472.114z M236.057,183.6H183.6v52.457
		h-43.714V183.6H87.429v-43.714h52.457V87.429H183.6v52.457h52.457V183.6z"/>
</g>
<g>
</g>
<g>
</g>
<g>
</g>
<g>
</g>
<g>
</g>
<g>
</g>
<g>
</g>
<g>
</g>
<g>
</g>
<g>
</g>
<g>
</g>
<g>
</g>
<g>
</g>
<g>
</g>
<g>
</g>
</svg>
